# xmcd CD database file
#
# Track frame offsets:
#	150
#	16100
#	37513
#	54228
#	71890
#	90975
#	109403
#	124215
#	136968
#	155070
#
# Disc length: 2417 seconds
#
# Revision: 0
# Processed by: cddbd v1.5.1PL0 Copyright (c) Steve Scherf et al.
# Submitted via: CDex 1.51
#
DISCID=7b096f0a
DTITLE=吉田拓郎 - 情熱
DYEAR=1900
DGENRE=JPop
TTITLE0=Woo Baby
TTITLE1=何処へ
TTITLE2=男と女の関係は
TTITLE3=I'm In Love
TTITLE4=情熱
TTITLE5=SCAMDAL
TTITLE6=風の時代
TTITLE7=チェックインブルース
TTITLE8=別離
TTITLE9=若い人
EXTD=
EXTT0=
EXTT1=
EXTT2=
EXTT3=
EXTT4=
EXTT5=
EXTT6=
EXTT7=
EXTT8=
EXTT9=
PLAYORDER=
